# xmcd
#
# Track frame offsets:
#	200
#	12905
#	29312
#	40862
#	55227
#	68395
#	80525
#	91825
#	103487
#	119205
#	129405
#	145180
#	155237
#	166380
#
# Disc length: 2379 seconds
#
# Revision: 0
# Processed by: cddbd v1.5.1PL0 Copyright (c) Steve Scherf et al.
# Submitted via: dBpowerAMP V4.0
#
DISCID=be09490e
DTITLE=Paul Adkins and the Borderline Band - Reflections Of Love
DYEAR=1991
DGENRE=Bluegrass
TTITLE0=Blue Tears Are Falling
TTITLE1=Reflections Of Love
TTITLE2=You Won't Be Satisfied That Way
TTITLE3=Have You Lost Your Love
TTITLE4=Verdel Of Scott
TTITLE5=Delta Dirt
TTITLE6=Pray For The Boys
TTITLE7=I'll Take The Blame
TTITLE8=My Kentucky Dream
TTITLE9=Is It Wrong (To Love Somebody New)
TTITLE10=Green Eyes
TTITLE11=Who's Gonna Shoe (Your Pretty Little Feet)
TTITLE12=Lonesome Train
TTITLE13=To Love Somebody
EXTD=Good Modern Bluegrass
EXTT0=
EXTT1=
EXTT2=
EXTT3=
EXTT4=
EXTT5=
EXTT6=
EXTT7=
EXTT8=
EXTT9=
EXTT10=
EXTT11=
EXTT12=
EXTT13=
PLAYORDER=
